<svg width="360" height="360" viewBox="0 0 360 360" fill="none" xmlns="http://www.w3.org/2000/svg">
  <rect width="360" height="360" rx="28" fill="#FFFFFF"/>
  <rect x="18" y="18" width="324" height="324" rx="18" stroke="#383838" stroke-width="8"/>
  <rect x="42" y="42" width="76" height="76" fill="#383838"/>
  <rect x="54" y="54" width="52" height="52" fill="#FFFFFF"/>
  <rect x="68" y="68" width="24" height="24" fill="#383838"/>
  <rect x="242" y="42" width="76" height="76" fill="#383838"/>
  <rect x="254" y="54" width="52" height="52" fill="#FFFFFF"/>
  <rect x="268" y="68" width="24" height="24" fill="#383838"/>
  <rect x="42" y="242" width="76" height="76" fill="#383838"/>
  <rect x="54" y="254" width="52" height="52" fill="#FFFFFF"/>
  <rect x="68" y="268" width="24" height="24" fill="#383838"/>
  <rect x="142" y="44" width="18" height="18" fill="#383838"/>
  <rect x="178" y="44" width="18" height="18" fill="#383838"/>
  <rect x="212" y="44" width="18" height="18" fill="#383838"/>
  <rect x="142" y="78" width="18" height="18" fill="#383838"/>
  <rect x="176" y="78" width="18" height="18" fill="#383838"/>
  <rect x="212" y="78" width="18" height="18" fill="#383838"/>
  <rect x="140" y="114" width="18" height="18" fill="#383838"/>
  <rect x="194" y="114" width="18" height="18" fill="#383838"/>
  <rect x="230" y="114" width="18" height="18" fill="#383838"/>
  <rect x="140" y="150" width="18" height="18" fill="#383838"/>
  <rect x="176" y="150" width="18" height="18" fill="#383838"/>
  <rect x="212" y="150" width="18" height="18" fill="#383838"/>
  <rect x="248" y="150" width="18" height="18" fill="#383838"/>
  <rect x="284" y="150" width="18" height="18" fill="#383838"/>
  <rect x="140" y="186" width="18" height="18" fill="#383838"/>
  <rect x="176" y="186" width="18" height="18" fill="#383838"/>
  <rect x="230" y="186" width="18" height="18" fill="#383838"/>
  <rect x="266" y="186" width="18" height="18" fill="#383838"/>
  <rect x="302" y="186" width="18" height="18" fill="#383838"/>
  <rect x="140" y="222" width="18" height="18" fill="#383838"/>
  <rect x="194" y="222" width="18" height="18" fill="#383838"/>
  <rect x="230" y="222" width="18" height="18" fill="#383838"/>
  <rect x="266" y="222" width="18" height="18" fill="#383838"/>
  <rect x="302" y="222" width="18" height="18" fill="#383838"/>
  <rect x="140" y="258" width="18" height="18" fill="#383838"/>
  <rect x="176" y="258" width="18" height="18" fill="#383838"/>
  <rect x="212" y="258" width="18" height="18" fill="#383838"/>
  <rect x="248" y="258" width="18" height="18" fill="#383838"/>
  <rect x="282" y="258" width="18" height="18" fill="#383838"/>
  <rect x="302" y="276" width="18" height="18" fill="#383838"/>
  <path d="M234 320H320" stroke="#383838" stroke-width="8" stroke-linecap="round"/>
  <text x="42" y="336" fill="#383838" font-family="IBM Plex Mono, monospace" font-size="16" letter-spacing="2.4">ANDROID</text>
</svg>
